<svg width="575" height="560" viewBox="0 0 575 560" fill="none" xmlns="http://www.w3.org/2000/svg">
<g clip-path="url(#clip0_402_9)">
<path opacity="0.25" d="M246.363 255.919L179.693 140.574L111.907 24.0786C108.031 17.5046 102.656 11.9401 96.2196 7.83935H95.659C88.7856 11.8187 83.1587 17.6367 79.4111 24.6392L28.9915 111.999C25.4151 118.116 23.5302 125.074 23.5302 132.159C23.5302 139.245 25.4151 146.203 28.9915 152.32L89.4956 257.037C93.9773 264.316 95.659 272.715 95.659 281.115C95.6107 289.526 93.494 297.795 89.4956 305.194L29.5521 408.784C25.9756 414.901 24.0907 421.859 24.0907 428.945C24.0907 436.03 25.9756 442.988 29.5521 449.105L79.9717 536.465C83.8928 543.186 89.4956 549.343 96.2196 553.265H96.7945C103.518 549.343 108.561 543.743 112.482 537.025L179.71 420.548L246.363 304.076C250.494 296.723 252.664 288.431 252.664 279.997C252.664 271.563 250.494 263.271 246.363 255.919Z" fill="url(#paint0_linear_402_9)"/>
<path opacity="0.25" d="M567.934 252.558L500.706 136.638L431.799 17.3604C428.619 11.9523 424.437 7.20068 419.475 3.36054C416.673 1.12114 413.87 0 410.509 0C375.213 0 351.123 1.12114 333.197 1.12114C330.397 1.12114 328.715 4.48168 329.276 7.28165L346.642 104.734C346.642 105.856 346.642 106.974 346.081 108.095C339.357 120.416 339.918 135.534 347.202 147.855L408.827 255.369C413.309 263.209 415.551 271.609 415.551 280.009C415.551 288.409 413.309 296.808 408.827 304.648L346.642 412.162C339.36 424.483 339.36 439.601 345.521 451.922C346.095 453.043 346.095 454.162 346.095 455.283L328.729 552.161C328.154 554.961 329.85 558.321 332.65 558.321C348.898 558.321 325.926 560 412.202 560C413.884 560 416.123 559.425 417.805 558.879C423.969 556.639 427.89 549.358 431.25 543.2L500.16 423.362L566.828 307.442C577.464 290.634 577.464 269.918 567.949 252.558" fill="url(#paint1_linear_402_9)"/>
<path d="M540.483 255.919L406.588 24.0786C398.185 9.52105 382.498 0 365.132 0H97.3406C88.3773 0 79.9745 2.79997 72.1294 7.27877V7.83934C78.5655 11.9401 83.9409 17.5046 87.8167 24.0786L155.045 140.573C161.208 137.774 168.49 136.095 175.214 136.095H286.137C303.504 136.095 319.197 145.055 327.594 160.173L383.056 255.919C391.458 270.479 391.458 288.958 383.056 304.079L327.594 399.838C319.191 414.399 302.943 423.917 286.137 423.917H175.771C168.804 423.894 161.924 422.366 155.602 419.438L88.3773 535.916C84.5014 542.49 79.1261 548.054 72.69 552.155V552.73C79.9716 557.209 88.9378 560.009 97.9012 560.009H366.238C383.605 560.009 399.298 551.048 407.695 535.93L541.596 304.076C549.447 288.958 549.447 271.037 540.483 255.919Z" fill="url(#paint2_linear_402_9)"/>
<path d="M221.712 255.919L155.045 140.574L87.8168 24.0786C83.9409 17.5046 78.5656 11.9401 72.1295 7.83935H71.5804C64.707 11.8187 59.0801 17.6367 55.3325 24.6392L5.46196 111.438C1.88551 117.555 0.000610352 124.513 0.000610352 131.599C0.000610352 138.684 1.88551 145.642 5.46196 151.759L65.9661 256.476C70.4477 263.755 72.1295 272.155 72.1295 280.555C72.0811 288.965 69.9645 297.234 65.9661 304.633L5.46196 408.784C1.88551 414.901 0.000610352 421.859 0.000610352 428.945C0.000610352 436.03 1.88551 442.988 5.46196 449.105L55.8844 536.473C59.8056 543.194 65.4084 549.352 72.1323 553.273H72.7073C79.4312 549.352 84.4735 543.752 88.3946 537.034L155.608 420.571L222.273 305.211C230.676 288.958 230.676 271.037 221.712 255.919Z" fill="url(#paint3_linear_402_9)"/>
</g>
<defs>
<linearGradient id="paint0_linear_402_9" x1="24.0384" y1="280.552" x2="252.555" y2="280.552" gradientUnits="userSpaceOnUse">
<stop stop-color="#00BA96"/>
<stop offset="0.52" stop-color="#00D9AF"/>
<stop offset="1" stop-color="#00D9AF"/>
</linearGradient>
<linearGradient id="paint1_linear_402_9" x1="329.008" y1="280" x2="575.345" y2="280" gradientUnits="userSpaceOnUse">
<stop stop-color="#008D85"/>
<stop offset="1" stop-color="#00FFE0"/>
</linearGradient>
<linearGradient id="paint2_linear_402_9" x1="72.1294" y1="279.997" x2="547.354" y2="279.997" gradientUnits="userSpaceOnUse">
<stop stop-color="#008D94"/>
<stop offset="1" stop-color="#00FFE0"/>
</linearGradient>
<linearGradient id="paint3_linear_402_9" x1="7.44352e-06" y1="280.555" x2="228.508" y2="280.555" gradientUnits="userSpaceOnUse">
<stop stop-color="#00BA96"/>
<stop offset="0.52" stop-color="#00D9AF"/>
<stop offset="1" stop-color="#00FAAF"/>
</linearGradient>
<clipPath id="clip0_402_9">
<rect width="574.943" height="560" fill="white"/>
</clipPath>
</defs>
</svg>
